<?xml version="1.0" encoding="UTF-8" standalone="no"?>
<!-- Created with Inkscape (http://www.inkscape.org/) -->

<svg
   xmlns:osb="http://www.openswatchbook.org/uri/2009/osb"
   xmlns:dc="http://purl.org/dc/elements/1.1/"
   xmlns:cc="http://creativecommons.org/ns#"
   xmlns:rdf="http://www.w3.org/1999/02/22-rdf-syntax-ns#"
   xmlns:svg="http://www.w3.org/2000/svg"
   xmlns="http://www.w3.org/2000/svg"
   xmlns:sodipodi="http://sodipodi.sourceforge.net/DTD/sodipodi-0.dtd"
   xmlns:inkscape="http://www.inkscape.org/namespaces/inkscape"
   inkscape:version="0.92.4 (5da689c313, 2019-01-14)"
   sodipodi:docname="kaldLogoV2.svg"
   id="SVGRoot"
   version="1.1"
   viewBox="0 0 256 256"
   height="256px"
   width="256px">
  <defs
     id="defs11024">
    <linearGradient
       id="linearGradient2848"
       osb:paint="solid">
      <stop
         style="stop-color:#000000;stop-opacity:1;"
         offset="0"
         id="stop2846" />
    </linearGradient>
  </defs>
  <sodipodi:namedview
     id="base"
     pagecolor="#ffffff"
     bordercolor="#666666"
     borderopacity="1.0"
     inkscape:pageopacity="0.0"
     inkscape:pageshadow="2"
     inkscape:zoom="2.3377816"
     inkscape:cx="182.71878"
     inkscape:cy="128.90589"
     inkscape:document-units="px"
     inkscape:current-layer="layer1"
     showgrid="false"
     inkscape:window-width="1920"
     inkscape:window-height="996"
     inkscape:window-x="-8"
     inkscape:window-y="-8"
     inkscape:window-maximized="1"
     inkscape:grid-bbox="true"
     showguides="false" />
  <metadata
     id="metadata11027">
    <rdf:RDF>
      <cc:Work
         rdf:about="">
        <dc:format>image/svg+xml</dc:format>
        <dc:type
           rdf:resource="http://purl.org/dc/dcmitype/StillImage" />
        <dc:title></dc:title>
      </cc:Work>
    </rdf:RDF>
  </metadata>
  <g
     inkscape:label="Layer 1"
     inkscape:groupmode="layer"
     id="layer1">
    <path
       style="opacity:0;fill:#5fd3bc;stroke:none;stroke-width:0.1;stroke-linecap:square;stroke-linejoin:round;stroke-miterlimit:4;stroke-dasharray:none;stroke-opacity:1;paint-order:normal"
       id="path11037"
       d="m 39.298164,73.857779 c -0.319792,7.39376 -0.346502,14.796937 -0.415127,22.196196 -0.08479,12.626225 -0.07205,25.253075 -0.02653,37.879445 0.06011,9.59856 0.112977,19.19713 0.153612,28.79579 0.02138,5.84567 0.06958,11.69113 0.181128,17.5358 0,0 -6.38249,3.25205 -6.38249,3.25205 v 0 c 0.110572,-5.90622 0.1598,-11.81319 0.181129,-17.72039 0.04068,-9.65084 0.09356,-19.30159 0.153611,-28.95232 0.04532,-12.61737 0.05856,-25.2352 -0.02653,-37.852414 -0.06796,-7.258205 -0.09068,-14.52073 -0.415127,-21.77316 0,0 6.596328,-3.360997 6.596328,-3.360997 z"
       inkscape:connector-curvature="0" />
    <path
       style="opacity:0;fill:#5fd3bc;stroke:none;stroke-width:0.1;stroke-linecap:square;stroke-linejoin:round;stroke-miterlimit:4;stroke-dasharray:none;stroke-opacity:1;paint-order:normal"
       id="path11039"
       d="m 47.459813,77.715314 c 0.92355,6.026489 3.005811,11.796731 4.822264,17.591664 0.719683,2.295963 1.426457,4.595952 2.139685,6.893932 0.77897,2.48023 1.55794,4.96046 2.33691,7.4407 5.47385,17.1597 10.256865,34.52462 15.273578,51.82026 4.145676,13.79974 7.978338,27.69137 12.296423,41.43904 0,0 -5.830246,3.18206 -5.830246,3.18206 v 0 c -3.763916,-13.97311 -7.44535,-27.9707 -11.548537,-41.84955 -4.932819,-17.29211 -10.001034,-34.54489 -15.53727,-51.65501 -1.558477,-4.74018 -3.056907,-9.5003 -4.658256,-14.226163 -1.934405,-5.708775 -4.231689,-11.306399 -5.735708,-17.153686 0,0 6.441157,-3.483247 6.441157,-3.483247 z"
       inkscape:connector-curvature="0" />
    <path
       style="opacity:0;fill:#5fd3bc;stroke:none;stroke-width:0.1;stroke-linecap:square;stroke-linejoin:round;stroke-miterlimit:4;stroke-dasharray:none;stroke-opacity:1;paint-order:normal"
       id="path11041"
       d="m 72.981633,87.238473 c 12.768627,4.625745 25.98193,7.793794 39.208557,10.78261 11.12774,2.485397 22.30059,4.800347 33.5569,6.631137 0.37608,0.0612 11.04068,1.6655 11.92803,1.79907 5.54662,0.81482 11.10976,1.5701 16.71036,1.88352 0.14439,0.23271 0.6698,0.56027 0.43316,0.69814 -2.49494,1.45362 -5.10836,2.77071 -7.86457,3.63159 -0.98131,0.30651 -2.0511,-0.14383 -3.07676,-0.21415 -1.46508,-0.10044 -2.93413,-0.15306 -4.39547,-0.29813 -4.68464,-0.46506 -7.18687,-0.95146 -11.9225,-1.71906 -12.76534,-2.60844 -25.45389,-5.61756 -38.06211,-8.90211 -4.78392,-1.34131 -9.606738,-2.525381 -14.421783,-3.741049 -0.298566,-0.183515 -0.743874,-0.234684 -0.895698,-0.550547 -1.331287,-2.769671 3.219889,-6.270365 4.634238,-7.431956 4.495483,-3.692099 7.933113,-5.613211 12.950813,-8.780616 4.56027,-2.530884 9.04255,-5.207675 13.68079,-7.592651 3.28964,-1.691528 6.69206,-3.157018 10.08598,-4.628183 11.21287,-4.860453 22.71207,-8.922063 34.42575,-12.396448 3.64102,-1.079959 7.31917,-2.030527 10.97876,-3.04579 8.38725,-2.169089 16.85832,-4.000263 25.38673,-5.517728 1.49628,-0.266232 7.15468,-1.432172 9.2014,-0.987291 0.79325,0.172424 1.34836,0.904348 2.02254,1.356523 0.0608,0.984422 0.42204,1.996541 0.18234,2.953268 -0.87859,3.506775 -4.339,8.052955 -6.34402,10.567447 -4.17579,5.236836 -8.75655,9.936125 -13.77543,14.379165 -3.04623,2.696725 -6.28767,5.164563 -9.4315,7.746844 -3.66425,2.521155 -7.23433,5.184959 -10.99274,7.563466 -4.17088,2.639539 -8.42504,5.15604 -12.7793,7.480658 -13.2873,7.093728 -20.7528,10.800748 -34.79653,15.181848 -16.00546,4.99309 -22.54224,5.64427 -39.301766,8.72282 -30.93032,4.46538 -62.20316,6.16573 -93.4376103,5.46181 -15.5339627,-0.35008 -21.9510827,-1.00984 -36.8976047,-2.1333 -8.356606,-1.05435 -14.932952,-1.53612 -22.941128,-3.68219 -2.373282,-0.636 -4.739001,-1.38597 -6.947426,-2.46292 -2.812535,-1.37155 -6.429458,-3.74515 -6.776168,-7.37689 -0.172336,-1.8052 0.787789,-3.54022 1.181684,-5.31034 1.639915,-2.21071 2.993868,-4.66552 4.919745,-6.63213 6.026334,-6.153797 16.101516,-12.939161 23.120576,-17.179888 13.2353,-7.996411 26.197383,-14.82532 40.420207,-20.855504 7.21192751,-3.057709 14.6281721,-5.609145 21.942258,-8.413718 7.779264,-2.366346 15.484193,-4.992497 23.337792,-7.099038 7.936532,-2.128786 15.953935,-3.965068 24.006715,-5.600001 22.71435,-4.611627 45.814896,-7.28979 69.011896,-7.288405 6.57608,3.93e-4 13.14192,0.518961 19.71288,0.778442 14.52122,1.338749 29.20281,3.2014 42.91287,8.471595 5.6972,2.190022 11.04719,4.945311 15.5352,9.145655 1.75665,1.644054 3.06548,3.709142 4.59822,5.563713 0.94525,2.255746 2.2002,4.405464 2.83573,6.767236 2.88736,10.729963 -0.68899,24.104898 -6.85515,33.062493 -2.07554,3.01514 -4.74361,5.57618 -7.11542,8.36427 -11.05079,8.47318 -12.92251,10.7338 -27.29786,17.14421 -5.17912,2.30952 -10.63986,3.97148 -16.10984,5.46696 -13.19281,3.6069 -27.77993,5.84776 -41.35325,6.9376 -8.07818,0.64863 -16.19506,0.65625 -24.292589,0.98437 -8.383933,-0.33215 -16.787146,-0.33824 -25.151799,-0.99644 -8.210214,-0.64605 -16.386194,-1.71686 -24.534416,-2.9133 -18.667402,-2.741 -37.2218984,-6.85831 -55.370699,-12.00764 -3.652447,-1.0363 -7.254073,-2.244 -10.88111,-3.36601 -2.023823,-0.87125 -10.353907,-3.50913 -11.697021,-6.92295 -1.932584,-4.91207 5.335977,-9.95418 7.60101,-11.601922 C -15.886195,91.60312 -1.5832058,85.675321 9.4200565,80.41654 17.382947,77.522028 25.24263,74.32605 33.308727,71.733005 53.638893,65.197373 74.743342,60.011765 95.661516,55.827532 118.08498,51.342198 143.92173,47.444873 166.63909,44.926705 c 11.40841,-1.264597 22.86754,-2.019861 34.30131,-3.029792 25.88806,-1.778121 51.85329,-2.257503 77.79063,-1.614497 5.43149,0.134651 20.57193,0.670001 26.9602,1.536681 2.46301,0.334151 4.85422,1.07187 7.28133,1.607804 0.59995,1.367143 2.30834,2.697693 1.79986,4.101428 -2.47505,6.832752 -16.92912,14.947792 -20.65616,17.059505 -20.4191,11.569312 -35.42524,17.951813 -57.90615,25.66618 -13.04242,4.475528 -26.35112,8.133767 -39.52668,12.200646 -15.20585,3.75117 -30.30813,7.95041 -45.61757,11.25351 -33.0779,7.13676 -66.45132,12.24281 -100.017862,16.40482 -16.255866,2.01562 -32.551916,3.72204 -48.8671368,5.1813 -32.2981272,2.8888 -50.3889632,3.44246 -81.9958502,4.93431 -11.534984,0.35202 -39.245181,1.47867 -52.316911,0.97105 -4.80853,-0.18673 -9.73863,-0.13859 -14.3606,-1.47808 -7.65833,-2.21945 -6.15121,-6.8226 -1.07957,-11.34044 4.16906,-3.71381 9.36328,-6.08465 14.04492,-9.12697 8.54111,-3.87188 16.8496,-8.30448 25.62333,-11.61563 19.497274,-7.35817 48.105085,-14.299156 67.883711,-18.310424 29.524076,-5.987726 63.693774,-10.987946 93.524419,-13.992031 17.363832,-1.748619 34.801807,-2.660003 52.20271,-3.990004 50.31613,-2.450523 100.75054,-1.673335 150.96475,2.318235 21.36134,1.698031 54.17233,5.529321 76.04716,8.617238 9.07454,1.280989 18.10294,2.869862 27.15441,4.304793 8.83713,1.826567 25.36666,4.513681 34.39066,8.692487 4.89636,2.26739 11.97007,6.506716 7.58803,13.548396 -6.66702,10.71352 -27.66286,18.77953 -36.01018,23.09519 -10.67219,3.46898 -21.17378,7.51497 -32.01655,10.40694 -13.87002,3.69939 -27.9284,6.70546 -42.03854,9.34494 -16.60222,3.10566 -33.29214,5.80219 -50.05379,7.88212 -36.16113,4.48718 -71.14476,6.48678 -107.55772,7.10199 -16.42821,0.27756 -32.86031,-0.23094 -49.290463,-0.34641 -24.114902,-0.98661 -50.684126,-1.88744 -74.9402463,-3.51485 -8.2803716,-0.55555 -16.5712969,-1.08382 -24.8091297,-2.08945 -1.201096,-0.14663 -20.891328,-1.94175 -23.8037,-7.21709 -1.094648,-1.98279 1.029617,-4.41121 1.544425,-6.61682 3.482867,-2.86189 6.635426,-6.18141 10.448601,-8.58568 14.267301,-8.99575 31.4659106,-16.54458 47.182485,-22.37033 22.75515,-8.43479 45.510283,-15.03706 69.156374,-20.589638 13.584804,-3.189983 27.332764,-5.640185 40.999144,-8.460277 14.06844,-2.101566 28.08563,-4.580729 42.20532,-6.304698 13.54009,-1.653201 27.14183,-2.785557 40.74296,-3.82302 31.48406,-2.401529 63.0869,-3.246297 94.65565,-3.08888 6.39351,0.03188 12.78529,0.21983 19.17793,0.329745 -17.26366,2.629744 21.57539,-1.600338 17.78429,3.07059 -6.61876,8.15484 -22.87765,10.217021 -31.47165,11.576972 -24.29517,3.844571 -46.71388,5.273278 -71.37609,7.417104 -43.64345,3.795102 -87.43092,5.218092 -131.20024,6.561862 -16.714806,0.51317 -42.81025,1.31435 -60.272863,1.62733 -6.476501,0.11608 -12.954434,0.12952 -19.431651,0.19428 -4.387101,-0.13006 -15.101676,0.006 -20.439436,-1.38189 -1.0491432,-0.27273 -2.2713933,-0.70677 -2.8007421,-1.65275 -1.1826048,-2.113386 3.2059001,-4.226147 3.7362071,-4.518981 3.395748,-1.875121 6.911176,-3.524823 10.366765,-5.287235 12.624483,-4.47589 25.736395,-7.393534 38.750282,-10.486006 12.784839,-3.083819 25.800452,-4.974087 38.750973,-7.183124 0,0 -5.247923,3.944891 -5.247923,3.944891 v 0 c -12.855612,2.026855 -25.747404,3.901433 -38.408141,6.98098 -7.795982,1.875831 -6.507635,1.545439 -14.195148,3.474957 -8.372266,2.101387 -16.772385,4.208217 -24.825085,7.363784 0.395176,-0.426761 1.753621,-1.405025 1.185528,-1.280285 -1.142406,0.250847 -2.145325,0.981659 -3.072521,1.694627 -1.761705,1.354665 -1.561778,2.434108 0.863681,3.378271 5.050217,1.965911 14.160505,2.164111 18.65284,2.547171 6.139112,0.17832 12.276413,0.43711 18.417335,0.53494 32.85697,0.52346 65.709989,-0.0393 98.543749,-1.3212 15.05445,-0.58778 30.10823,-1.22985 45.1487,-2.105118 15.21048,-0.885165 30.39879,-2.117227 45.59819,-3.17584 27.23982,-2.904044 47.87976,-4.378324 74.31202,-9.659794 6.96084,-1.390856 13.6981,-3.735247 20.58935,-5.437722 0.72118,-0.178165 2.45993,0.505731 2.21982,-0.197252 -1.735,-5.079811 -15.32718,-3.666151 -15.52909,-4.263771 -17.96417,-0.955523 -23.44911,-1.427739 -42.70128,-1.548434 -10.33206,-0.06477 -20.66806,-0.07221 -30.99593,0.228958 -40.17047,1.171404 -80.27975,4.721504 -119.85332,11.880178 -13.75584,2.88915 -27.60407,5.368928 -41.267526,8.667451 -24.023955,5.799674 -47.661883,12.959514 -70.728966,21.840094 -7.960726,3.06479 -30.905239,12.73767 -40.421368,18.88871 -3.454109,2.23266 -6.364713,5.21086 -9.547069,7.81629 -0.730665,2.02691 -2.950179,4.06394 -2.191994,6.08071 2.230226,5.9324 19.500943,8.32925 21.299671,8.64321 7.7953902,1.36063 15.6793049,2.1806 23.55253,2.97544 31.798425,3.21021 39.754139,2.96224 73.767703,4.35351 16.430019,0.11528 32.861979,0.6236 49.290059,0.34585 36.4128,-0.61564 71.39576,-2.61565 107.55667,-7.1034 29.89506,-3.71013 63.78718,-9.65689 92.99102,-17.92879 11.36038,-3.21779 22.31327,-7.73094 33.4699,-11.59641 8.74442,-4.41668 22.10764,-9.12601 28.07594,-18.37221 1.36817,-2.11959 1.78058,-5.23598 0.73634,-7.53252 -1.26394,-2.7797 -4.22148,-4.560002 -6.90084,-6.024692 -8.28936,-4.531439 -24.28906,-7.822421 -32.51718,-9.909231 -24.43502,-4.75161 -33.65801,-6.925888 -59.70182,-10.145318 -63.78732,-7.885133 -128.25208,-9.418692 -192.41995,-6.522027 -17.400752,1.3302 -34.838584,2.241779 -52.202264,3.990601 -16.423518,1.654131 -32.806803,3.749682 -49.1282508,6.215128 -29.8281822,4.505715 -54.5396492,9.377525 -83.3643152,17.611431 -10.548677,3.013278 -20.94537,6.562208 -31.2489,10.329388 -6.41419,2.34516 -12.57656,5.32882 -18.86484,7.99324 -4.26347,2.78709 -8.91292,5.05824 -12.79041,8.36129 -3.78213,3.22183 -7.39252,8.0789 -0.39451,10.90043 4.13561,1.66744 8.7437,1.86636 13.1858,2.25548 13.04516,1.14277 38.282464,0.70826 50.032819,0.67722 12.370455,-0.46845 24.751419,-0.71301 37.111366,-1.40533 31.947145,-1.78947 61.408055,-4.39298 93.245266,-8.34091 33.566641,-4.16238 66.939029,-9.2687 100.016949,-16.40604 15.30926,-3.30333 30.41133,-7.50283 45.61699,-11.25424 33.89707,-10.826834 41.9812,-12.327771 73.07784,-26.02951 6.86443,-3.024593 13.59306,-6.388125 20.09774,-10.124137 3.11477,-1.788993 16.34428,-9.603572 18.89463,-15.417406 0.53204,-1.21285 -0.67306,-2.561888 -1.00959,-3.842832 -2.22379,-0.643482 -4.39675,-1.499854 -6.67137,-1.930444 -6.19636,-1.172983 -20.19871,-2.186506 -25.56782,-2.491254 -25.22886,-1.43198 -50.5299,-1.367616 -75.75548,0.162936 -11.34805,0.948469 -22.72341,1.613014 -34.04415,2.845406 -11.95238,1.301153 -23.8751,2.899992 -35.75445,4.752972 -33.520921,5.228706 -66.798558,12.431733 -99.007528,23.201915 -8.309606,2.778604 -16.396737,6.18286 -24.5951061,9.274291 -11.641145,5.159012 -17.1262369,6.80424 -27.2625779,14.124244 -1.667357,1.20409 -8.717073,6.181869 -7.447135,10.400989 1.055415,3.5064 8.669388,6.27668 10.668491,7.26903 3.438925,1.24063 6.842843,2.58297 10.3167748,3.7219 17.5434852,5.75165 35.6436502,10.15311 53.8931372,12.96148 8.109962,1.24803 16.257761,2.31809 24.438712,2.95142 8.396348,0.65 16.832366,0.59674 25.248549,0.89511 8.186733,-0.40558 16.396953,-0.47615 24.560203,-1.21673 13.74944,-1.24737 28.72205,-3.7444 42.05613,-7.57473 6.57864,-1.88977 18.3104,-5.89808 24.93026,-10.18985 3.48173,-2.25727 6.59708,-5.03481 9.89562,-7.55222 2.32456,-2.72278 4.9416,-5.22084 6.97367,-8.16835 6.04842,-8.773227 9.5263,-21.882435 6.69954,-32.392033 -0.61994,-2.304851 -1.84356,-4.403174 -2.76534,-6.604761 -1.45813,-1.843829 -2.7009,-3.880649 -4.3744,-5.531488 -4.27216,-4.214311 -9.34051,-7.066234 -14.85102,-9.364133 C 176.20156,40.971112 161.8936,38.85 147.73072,37.342209 129.28037,36.420092 125.8516,35.742597 106.86785,36.978391 82.914794,38.537674 58.937063,42.755034 35.775089,49.024276 c -7.890904,2.135828 -15.627493,4.805619 -23.44124,7.208428 -7.3827954,2.869424 -14.8729925,5.476515 -22.1483865,8.608273 -9.3258655,4.014401 -24.0872855,11.242334 -33.3709835,16.975183 -6.876253,4.246209 -15.984474,10.413042 -21.836544,16.454778 -1.786319,1.844212 -3.049463,4.131462 -4.574194,6.197202 -0.424496,1.61729 -1.363689,3.18224 -1.273488,4.85187 0.188908,3.49677 3.450613,5.77336 6.103087,7.21167 2.062058,1.11816 4.279118,1.95192 6.516669,2.656 7.809835,2.45749 13.62669,3.00721 21.907648,4.32285 14.889671,1.47488 20.39143,2.2438 35.98801713,2.74863 31.29847087,1.01308 62.65102787,-0.94128 93.60367787,-5.67012 6.990438,-1.34396 14.035268,-2.4307 20.971308,-4.03187 14.31452,-3.30449 21.89223,-5.94074 35.30194,-11.31525 3.50212,-1.40363 7.00085,-2.84582 10.34604,-4.59074 10.03765,-5.235832 14.23412,-8.511304 23.36629,-14.79709 3.06837,-2.535775 6.23525,-4.956852 9.20511,-7.607326 4.87117,-4.347319 9.24635,-8.885993 13.24752,-14.033361 2.04748,-2.634012 4.76775,-6.428814 5.78903,-9.843222 0.22322,-0.746253 0.0511,-1.557004 0.0767,-2.335506 -0.52068,-0.38229 -0.93245,-1.002381 -1.56204,-1.14687 -2.01959,-0.463498 -7.14362,0.483455 -8.66236,0.72338 -8.3144,1.31348 -16.56577,3.009277 -24.72485,5.081861 -3.6203,0.993052 -7.26014,1.917456 -10.86091,2.979157 -16.67885,4.917818 -32.96228,11.180824 -48.41055,19.191747 -5.32853,3.374481 -11.29773,6.70804 -15.60451,11.448016 -0.0865,0.09525 -1.766575,2.100527 -1.4,2.939595 0.11458,0.262269 0.50175,0.275497 0.75263,0.413245 4.63115,1.34038 9.24456,2.736397 13.86153,4.127174 12.45999,3.53921 25.05628,6.67401 37.80361,8.99214 5.29729,0.76447 6.96108,1.11468 12.16987,1.46174 1.52388,0.10154 3.05229,0.12192 4.57925,0.15262 1.09991,0.0221 3.73927,-1.003 3.30038,0.006 -2.75234,6.32624 -6.49954,1.73931 -4.33677,4.16131 -5.39481,-0.614 -10.76484,-1.41602 -16.10995,-2.3729 -3.88657,-0.66887 -7.77957,-1.30113 -11.66068,-2.00102 -11.13676,-2.00834 -22.19153,-4.43618 -33.23842,-6.88249 -8.885014,-1.949608 -9.666291,-2.065025 -18.365652,-4.189489 -6.491012,-1.585164 -12.916913,-3.388527 -19.381652,-5.07146 -0.920728,-0.239689 -1.846622,-0.459072 -2.769933,-0.688608 0,0 6.04939,-4.12114 6.04939,-4.12114 z"
       inkscape:connector-curvature="0" />
    <path
       style="opacity:0;fill:#00d4aa;stroke:#00d4aa;stroke-width:0.1;stroke-linecap:square;stroke-linejoin:round;stroke-miterlimit:4;stroke-dasharray:none;stroke-opacity:1;paint-order:normal"
       id="path11059"
       d="m 15.920372,109.08884 c 0.808212,-0.67023 2.528463,-2.1049 3.189406,-2.60374 2.566246,-1.93685 4.967479,-3.50498 7.730902,-5.24022 8.322971,-5.226266 10.218429,-6.070244 20.569825,-11.894178 21.735563,-11.614696 44.079469,-22.057097 66.572445,-32.110556 9.35865,-4.07148 18.69825,-8.192026 28.12006,-12.116604 12.05563,-5.021673 -2.80668,1.268644 6.87302,-2.840895 0.72182,-0.203716 1.41549,-0.618704 2.16547,-0.611146 1.621,0.01633 2.08798,1.257509 2.16879,2.659427 0.19749,3.426003 -2.03601,8.132805 -3.26147,11.190211 -4.62109,10.702316 -10.56329,20.744567 -16.81725,30.556078 -5.1796,7.882955 -10.39437,15.748223 -15.79778,23.480403 -3.41379,4.83012 -7.29099,9.29882 -11.11185,13.80456 -1.87473,2.17733 -0.9677,1.13136 -2.71955,3.13924 0,0 -6.589606,2.7762 -6.589606,2.7762 v 0 c 1.821881,-2.0254 0.882418,-0.97059 2.815995,-3.16657 3.896781,-4.5155 7.827161,-9.01529 11.347821,-13.83568 5.54296,-7.76922 10.90134,-15.670264 16.18571,-23.616972 6.23897,-9.715398 12.13614,-19.681854 16.64419,-30.338738 1.06145,-2.748019 2.08741,-5.03193 2.69998,-7.899787 0.081,-0.379341 0.64229,-3.267606 -0.0293,-4.054524 -0.73966,-0.86662 -2.60903,0.05732 -3.14981,0.212547 -11.33766,4.568547 -22.67824,9.131348 -33.85815,14.080751 -22.583348,9.972065 -44.963093,20.467732 -66.6659,32.250579 -5.199266,2.826375 -3.942771,2.047965 -10.0867,5.96354 -3.525936,2.247104 -7.073377,4.553454 -10.119249,7.440314 0,0 -6.876959,2.77576 -6.876959,2.77576 z"
       inkscape:connector-curvature="0" />
    <path
       style="opacity:1;fill:#00d4aa;stroke:#00d4aa;stroke-width:0.1;stroke-linecap:square;stroke-linejoin:round;stroke-miterlimit:4;stroke-dasharray:none;stroke-opacity:1;paint-order:normal"
       id="path11069"
       d="m 45.334126,117.64355 c 0.581984,-0.52792 1.139332,-1.08434 1.745951,-1.58376 4.064389,-3.34612 8.615496,-6.13043 13.084834,-8.88634 7.821464,-4.82292 10.404656,-6.139 19.582088,-11.339931 11.9783,-6.538853 24.243591,-12.60516 36.929141,-17.653663 0.86671,-0.06383 1.81238,-0.558504 2.60013,-0.191486 2.31224,1.077275 0.0851,5.309619 -0.28047,5.965801 -3.09636,5.55734 -11.90885,16.533069 -15.03738,20.530589 -3.65074,4.66479 -7.358724,9.28448 -11.038086,13.92672 -15.690716,19.33863 -31.142931,38.86676 -46.550503,58.43065 0,0 -5.801327,2.4735 -5.801327,2.4735 v 0 c 16.341979,-19.54853 32.414175,-39.32417 48.362033,-59.19472 3.545653,-4.58101 7.161157,-9.1088 10.636959,-13.74303 4.002734,-5.33679 9.909564,-13.216442 13.282454,-19.539822 0.5687,-1.066181 1.01776,-2.224311 1.20959,-3.417359 0.0699,-0.434409 -0.0496,-1.081439 -0.46123,-1.236762 -0.71392,-0.269364 -1.52011,0.134945 -2.28016,0.202417 -12.480864,4.785581 -24.48552,10.740112 -36.189907,17.177839 -4.260562,2.259147 -2.972746,1.516767 -9.094918,5.326767 -1.853896,1.15373 -3.687675,2.33983 -5.512266,3.53937 -2.943937,1.93543 -5.948101,3.87967 -8.426416,6.41292 0,0 -6.760517,2.8003 -6.760517,2.8003 z"
       inkscape:connector-curvature="0" />
    <path
       style="opacity:1;fill:#00d4aa;stroke:#00d4aa;stroke-width:0.1;stroke-linecap:square;stroke-linejoin:round;stroke-miterlimit:4;stroke-dasharray:none;stroke-opacity:1;paint-order:normal"
       id="path11073"
       d="m 87.52195,125.56321 c 2.973381,-0.83068 5.890976,-1.84094 8.860893,-2.68157 2.338325,-0.67701 4.615267,-1.55488 6.952687,-2.23038 2.54707,-0.7007 5.08762,-1.41959 7.63425,-2.12198 2.11026,-0.43451 4.06357,-1.36673 6.1033,-2.01554 2.37055,-0.64653 4.5709,-1.73709 6.82309,-2.69341 1.83384,-0.66407 3.59705,-1.49913 5.31448,-2.41863 2.62425,-1.24868 1.49843,-0.73693 -4.71218,2.76631 -0.28357,0.15996 0.55734,-0.33674 0.83342,-0.5093 0.3132,-0.19577 0.61501,-0.41002 0.93433,-0.59563 6.7215,-3.90711 4.92078,-2.95267 8.31568,-4.71753 0.33901,-0.19828 1.35769,-0.79027 1.01702,-0.59485 -1.73978,0.99802 -3.4748,2.00431 -5.21439,3.00266 -0.33911,0.19462 0.67297,-0.39833 1.01295,-0.59144 2.41696,-1.37286 4.81579,-2.7786 7.2578,-4.10641 0.32264,-0.17544 0.69022,-0.25241 1.02719,-0.39844 0.31862,-0.13808 0.62533,-0.30215 0.938,-0.45322 2.28424,-1.11553 6.51233,-3.56352 -3.51027,2.12005 -0.31894,0.18087 0.6294,-0.3763 0.94338,-0.56564 1.58986,-0.95878 0.32102,-0.20726 2.04831,-1.22055 4.33641,-2.55714 8.70636,-5.05918 13.09428,-7.527029 2.12779,-1.100552 7.33187,-4.142267 -2.07847,1.258368 -0.48262,0.27698 0.96362,-0.556817 1.44331,-0.838852 0.65165,-0.383139 1.8819,-1.122854 2.5445,-1.520272 20.94234,-11.998392 1.45872,-0.802193 2.17579,-1.224637 2.37387,-1.398514 4.76879,-2.760993 7.15673,-4.135351 6.53314,-3.760097 -20.91099,12.026733 2.40789,-1.359058 0.22765,-0.102942 0.46004,-0.195995 0.68296,-0.308828 0.48242,-0.244184 1.9015,-1.029831 1.43419,-0.757847 -10.1941,5.933124 -6.01774,3.429497 -3.80903,2.113916 1.57675,-0.952045 3.13606,-1.932199 4.71213,-2.885597 0.98561,-0.678388 2.01773,-1.282724 3.03273,-1.914826 0,0 6.83548,-2.662308 6.83548,-2.662308 v 0 c -0.99193,0.660909 -2.05541,1.202383 -3.01199,1.916266 -1.55563,1.0121 -3.19332,1.898893 -4.74457,2.920639 -3.60161,2.092142 -7.11479,4.349705 -10.85383,6.193411 1.85262,-1.074467 7.41909,-4.282871 5.55785,-3.223402 -2.36414,1.34574 -4.7097,2.723865 -7.06661,4.082236 -0.28472,0.164094 -1.1424,0.650192 -0.85824,0.485142 1.77228,-1.02938 7.10156,-4.095958 5.32261,-3.078157 -5.98543,3.424481 -11.75698,6.820702 -2.2174,1.232673 -4.72533,2.820252 -9.45872,5.634245 -14.29677,8.257273 -3.15744,1.79004 0.62224,-0.35597 -2.50263,1.4283 -0.3763,0.21487 -1.50446,0.86069 -1.13081,0.64124 9.81855,-5.766376 5.1187,-2.98844 2.96017,-1.70252 -3.98339,2.29918 -7.82227,4.87576 -11.99534,6.82707 -0.0123,0.005 -1.94472,0.86941 -1.93455,0.86312 1.72135,-1.06539 3.49346,-2.04648 5.239,-3.07175 0.33747,-0.19822 -0.67608,0.39448 -1.01478,0.59059 -7.44975,4.31343 -4.83375,2.84861 -8.28837,4.77334 -2.38192,1.26508 -3.54032,1.8986 4.17213,-2.49968 0.59645,-0.34014 -1.13429,0.77623 -1.72767,1.1217 -6.70117,3.90139 -4.72387,2.88196 -7.87065,4.47648 -1.70884,0.87304 -3.47546,1.61978 -5.26588,2.3092 -2.27363,0.99078 -4.53992,1.99962 -6.92547,2.70034 -1.99139,0.71901 -3.9815,1.44898 -6.05073,1.92029 -2.56397,0.70005 -5.11268,1.45222 -7.670381,2.17409 -2.295081,0.72846 -4.573466,1.51228 -6.891033,2.16878 -3.015479,0.87411 -5.997063,1.86157 -8.994214,2.79588 0,0 5.847728,-4.51473 5.847728,-4.51473 z"
       inkscape:connector-curvature="0" />
    <path
       style="opacity:1;fill:#00d4aa;stroke:#00d4aa;stroke-width:0.1014866;stroke-linecap:square;stroke-linejoin:round;stroke-miterlimit:4;stroke-dasharray:none;stroke-opacity:1;paint-order:normal"
       id="path11077"
       d="m 88.529328,126.51021 c 6.795041,7.09661 14.112612,13.63675 21.250872,20.35999 8.08571,7.54522 16.40125,14.82183 24.6566,22.16772 2.0719,2.12925 4.45743,3.99549 6.34182,6.31885 0.54233,0.66866 0.88222,1.25617 1.33261,1.97711 0,0 -6.32115,3.78726 -6.32115,3.78726 v 0 c -0.40369,-0.69424 -0.70953,-1.26254 -1.19792,-1.91115 -1.76608,-2.34545 -3.99803,-4.30275 -5.9559,-6.46492 -7.96506,-7.59841 -16.12413,-14.97529 -24.16749,-22.48512 -7.303833,-6.75138 -14.697747,-13.39641 -22.279065,-19.81689 0,0 6.339623,-3.93285 6.339623,-3.93285 z"
       inkscape:connector-curvature="0" />
    <text
       xml:space="preserve"
       style="font-style:normal;font-weight:normal;font-size:74.66666412px;line-height:1.25;font-family:sans-serif;letter-spacing:0px;word-spacing:0px;fill:#002b22;fill-opacity:1;stroke:#002b22;"
       x="105.75"
       y="154"
       id="text11087"><tspan
         sodipodi:role="line"
         id="tspan11085"
         x="105.75"
         y="154"
         style="font-style:normal;font-variant:normal;font-weight:300;font-stretch:normal;font-family:'Segoe UI';-inkscape-font-specification:'Segoe UI Light';fill:#002b22;stroke:#002b22;">ald</tspan></text>
    <rect
       y="50.320984"
       x="35.086422"
       height="169.38272"
       width="180.87654"
       id="rect24"
       style="opacity:0.25;fill-opacity:1;fill-rule:nonzero;stroke:#008080;stroke-width:1.63552749;stroke-miterlimit:4;stroke-dasharray:none;stroke-opacity:1;fill:#dee3db" />
  </g>
</svg>
