<?xml version="1.0" encoding="UTF-8" standalone="no"?>
<!-- Created with Inkscape (http://www.inkscape.org/) -->

<svg
   xmlns:dc="http://purl.org/dc/elements/1.1/"
   xmlns:cc="http://creativecommons.org/ns#"
   xmlns:rdf="http://www.w3.org/1999/02/22-rdf-syntax-ns#"
   xmlns:svg="http://www.w3.org/2000/svg"
   xmlns="http://www.w3.org/2000/svg"
   xmlns:sodipodi="http://sodipodi.sourceforge.net/DTD/sodipodi-0.dtd"
   xmlns:inkscape="http://www.inkscape.org/namespaces/inkscape"
   width="800px"
   height="600px"
   viewBox="0 0 800 600"
   version="1.1"
   id="SVGRoot"
   enable-background="new"
   inkscape:version="0.92.5 (2060ec1f9f, 2020-04-08)"
   sodipodi:docname="background1.svg">
  <defs
     id="defs26">
    <inkscape:perspective
       sodipodi:type="inkscape:persp3d"
       inkscape:vp_x="0 : 300 : 1"
       inkscape:vp_y="0 : 1000 : 0"
       inkscape:vp_z="800 : 300 : 1"
       inkscape:persp3d-origin="400 : 200 : 1"
       id="perspective166" />
    <filter
       inkscape:collect="always"
       style="color-interpolation-filters:sRGB"
       id="filter1041">
      <feBlend
         inkscape:collect="always"
         mode="overlay"
         in2="BackgroundImage"
         id="feBlend1043" />
    </filter>
  </defs>
  <sodipodi:namedview
     id="base"
     pagecolor="#ffffff"
     bordercolor="#666666"
     borderopacity="1.0"
     inkscape:pageopacity="1.0"
     inkscape:pageshadow="0"
     inkscape:zoom="0.90509668"
     inkscape:cx="316.65923"
     inkscape:cy="255.99698"
     inkscape:document-units="px"
     inkscape:current-layer="g164"
     showgrid="false"
     inkscape:window-width="1440"
     inkscape:window-height="847"
     inkscape:window-x="-8"
     inkscape:window-y="-8"
     inkscape:window-maximized="1" />
  <metadata
     id="metadata29">
    <rdf:RDF>
      <cc:Work
         rdf:about="">
        <dc:format>image/svg+xml</dc:format>
        <dc:type
           rdf:resource="http://purl.org/dc/dcmitype/StillImage" />
        <dc:title></dc:title>
      </cc:Work>
    </rdf:RDF>
  </metadata>
  <g
     inkscape:label="Layer 1"
     inkscape:groupmode="layer"
     id="layer1"
     style="opacity:0.50700001;filter:url(#filter1041)"
     sodipodi:insensitive="true">
    <path
       sodipodi:type="star"
       style="opacity:1;fill:#d5f6ff;fill-opacity:1;stroke:none;stroke-width:1.57299995;stroke-miterlimit:4;stroke-dasharray:none"
       id="path1067"
       sodipodi:sides="3"
       sodipodi:cx="388.90872"
       sodipodi:cy="276.27768"
       sodipodi:r1="133.86987"
       sodipodi:r2="133.86987"
       sodipodi:arg1="1.8638341"
       sodipodi:arg2="2.9110317"
       inkscape:flatsided="false"
       inkscape:rounded="0"
       inkscape:randomized="0"
       d="m 350.23883,404.44079 -91.65756,-97.57068 38.66989,-128.1631 130.32746,-30.59244 91.65756,97.57067 -38.6699,128.16311 z"
       inkscape:transform-center-x="-19.334951"
       inkscape:transform-center-y="15.296217" />
    <path
       sodipodi:type="star"
       style="opacity:1;fill:#d5f6ff;fill-opacity:1;stroke:none;stroke-width:1.57299995;stroke-miterlimit:4;stroke-dasharray:none"
       id="path1069"
       sodipodi:sides="3"
       sodipodi:cx="485.03107"
       sodipodi:cy="118.28351"
       sodipodi:r1="53.056023"
       sodipodi:r2="53.056023"
       sodipodi:arg1="0.54756224"
       sodipodi:arg2="1.5947598"
       inkscape:flatsided="false"
       inkscape:rounded="0"
       inkscape:randomized="0"
       d="m 530.3301,145.90487 -46.57032,25.41943 -45.29903,-27.62136 1.27129,-53.040792 46.57031,-25.419429 45.29903,27.621359 z" />
    <path
       sodipodi:type="star"
       style="opacity:1;fill:#d5f6ff;fill-opacity:1;stroke:none;stroke-width:1.57299995;stroke-miterlimit:4;stroke-dasharray:none"
       id="path1071"
       sodipodi:sides="3"
       sodipodi:cx="613.19415"
       sodipodi:cy="186.78447"
       sodipodi:r1="65.699364"
       sodipodi:r2="65.699364"
       sodipodi:arg1="0.34302394"
       sodipodi:arg2="1.3902215"
       inkscape:flatsided="false"
       inkscape:rounded="0"
       inkscape:randomized="0"
       d="m 675.066,208.88156 -50.07256,42.53404 -61.87185,-22.09709 -11.79928,-64.63113 50.07256,-42.53404 61.87184,22.09708 z" />
    <path
       sodipodi:type="star"
       style="opacity:1;fill:#d5f6ff;fill-opacity:1;stroke:none;stroke-width:1.57299995;stroke-miterlimit:4;stroke-dasharray:none"
       id="path1073"
       sodipodi:sides="3"
       sodipodi:cx="107.17087"
       sodipodi:cy="117.17865"
       sodipodi:r1="92.972031"
       sodipodi:r2="92.972031"
       sodipodi:arg1="0.79380133"
       sodipodi:arg2="1.8409989"
       inkscape:flatsided="false"
       inkscape:rounded="0"
       inkscape:randomized="0"
       d="M 172.35727,183.46991 82.354154,206.77736 17.167751,140.4861 41.984464,50.887389 131.98758,27.579937 197.17399,93.871199 Z" />
    <path
       sodipodi:type="star"
       style="opacity:1;fill:#d7f4e3;fill-opacity:1;stroke:none;stroke-width:1.57299995;stroke-miterlimit:4;stroke-dasharray:none"
       id="path1075"
       sodipodi:sides="3"
       sodipodi:cx="140.3165"
       sodipodi:cy="305.00388"
       sodipodi:r1="72.027695"
       sodipodi:r2="72.027695"
       sodipodi:arg1="0.720273"
       sodipodi:arg2="1.7674706"
       inkscape:flatsided="false"
       inkscape:rounded="0"
       inkscape:randomized="0"
       d="m 194.45436,352.51261 -68.21271,23.1304 -54.13786,-47.50874 14.074844,-70.63914 68.212706,-23.13039 54.13787,47.50874 z" />
    <path
       sodipodi:type="star"
       style="opacity:1;fill:#d7f4e3;fill-opacity:1;stroke:none;stroke-width:1.57299995;stroke-miterlimit:4;stroke-dasharray:none"
       id="path1077"
       sodipodi:sides="3"
       sodipodi:cx="567.89514"
       sodipodi:cy="401.12622"
       sodipodi:r1="58.651012"
       sodipodi:r2="58.651012"
       sodipodi:arg1="1.5142529"
       sodipodi:arg2="2.5614504"
       inkscape:flatsided="false"
       inkscape:rounded="0"
       inkscape:randomized="0"
       d="m 571.2097,459.6835 -52.36937,-26.40814 -3.31456,-58.55728 49.05481,-32.14914 52.36937,26.40815 3.31457,58.55727 z" />
    <path
       sodipodi:type="star"
       style="opacity:1;fill:#dbe3e2;fill-opacity:1;stroke:none;stroke-width:1.57299995;stroke-miterlimit:4;stroke-dasharray:none"
       id="path1083"
       sodipodi:sides="3"
       sodipodi:cx="82.864075"
       sodipodi:cy="461.89322"
       sodipodi:r1="58.149357"
       sodipodi:r2="58.149357"
       sodipodi:arg1="0.67770829"
       sodipodi:arg2="1.7249058"
       inkscape:flatsided="false"
       inkscape:rounded="0"
       inkscape:randomized="0"
       d="m 128.1631,498.35341 -54.224962,21.00002 -45.299031,-36.4602 8.925938,-57.4602 54.224969,-21.00002 45.299026,36.46019 z" />
    <path
       sodipodi:type="star"
       style="opacity:1;fill:#d5e5ff;fill-opacity:1;stroke:none;stroke-width:1.57299995;stroke-miterlimit:4;stroke-dasharray:none"
       id="path1085"
       sodipodi:sides="3"
       sodipodi:cx="253.0116"
       sodipodi:cy="405.54562"
       sodipodi:r1="55.836189"
       sodipodi:r2="55.836189"
       sodipodi:arg1="1.0982989"
       sodipodi:arg2="2.1454965"
       inkscape:flatsided="false"
       inkscape:rounded="0"
       inkscape:randomized="0"
       d="m 278.42329,455.26409 -55.76331,-2.85206 -25.41168,-49.71847 30.35161,-46.8664 55.7633,2.85206 25.41169,49.71847 z" />
    <path
       sodipodi:type="star"
       style="opacity:1;fill:#f6d5ff;fill-opacity:1;stroke:none;stroke-width:1.57299995;stroke-miterlimit:4;stroke-dasharray:none"
       id="path1087"
       sodipodi:sides="3"
       sodipodi:cx="302.7301"
       sodipodi:cy="50.88739"
       sodipodi:r1="39.233997"
       sodipodi:r2="39.233997"
       sodipodi:arg1="1.4010181"
       sodipodi:arg2="2.4482156"
       inkscape:flatsided="false"
       inkscape:rounded="0"
       inkscape:randomized="0"
       d="m 309.35923,89.557291 -36.80368,-13.593959 -6.62913,-38.669903 30.17456,-25.07594 36.80368,13.593961 6.62912,38.669899 z" />
    <path
       sodipodi:type="star"
       style="opacity:1;fill:#f4d7e3;fill-opacity:1;stroke:none;stroke-width:1.57299995;stroke-miterlimit:4;stroke-dasharray:none"
       id="path1089"
       sodipodi:sides="3"
       sodipodi:cx="707.10675"
       sodipodi:cy="79.613602"
       sodipodi:r1="46.875"
       sodipodi:r2="46.875"
       sodipodi:arg1="0.78539816"
       sodipodi:arg2="1.8325957"
       inkscape:flatsided="false"
       inkscape:rounded="0"
       inkscape:randomized="0"
       d="m 740.25238,112.75923 -45.27777,12.13214 -33.14563,-33.145625 12.13214,-45.277773 45.27777,-12.132143 33.14563,33.145629 z" />
    <path
       sodipodi:type="star"
       style="opacity:1;fill:#e3dbde;fill-opacity:1;stroke:none;stroke-width:1.57299995;stroke-miterlimit:4;stroke-dasharray:none"
       id="path1091"
       sodipodi:sides="3"
       sodipodi:cx="582.25824"
       sodipodi:cy="61.935932"
       sodipodi:r1="25.24296"
       sodipodi:r2="25.24296"
       sodipodi:arg1="1.1659045"
       sodipodi:arg2="2.2131021"
       inkscape:flatsided="false"
       inkscape:rounded="0"
       inkscape:randomized="0"
       d="m 592.20193,85.137873 -25.06532,-2.989483 -9.94369,-23.20194 15.12163,-20.212459 25.06531,2.989483 9.94369,23.201942 z" />
    <path
       sodipodi:type="star"
       style="opacity:1;fill:#e3dbe2;fill-opacity:1;stroke:none;stroke-width:1.57299995;stroke-miterlimit:4;stroke-dasharray:none"
       id="path1093"
       sodipodi:sides="3"
       sodipodi:cx="734.72815"
       sodipodi:cy="260.80972"
       sodipodi:r1="52.115875"
       sodipodi:r2="52.115875"
       sodipodi:arg1="1.012197"
       sodipodi:arg2="2.0593946"
       inkscape:flatsided="false"
       inkscape:rounded="0"
       inkscape:randomized="0"
       d="m 762.34951,305.0039 -52.08396,1.82371 -27.62136,-44.19418 24.4626,-46.01788 52.08396,-1.82371 27.62136,44.19417 z" />
    <path
       sodipodi:type="star"
       style="opacity:1;fill:#e2dbe3;fill-opacity:1;stroke:none;stroke-width:1.57299995;stroke-miterlimit:4;stroke-dasharray:none"
       id="path1095"
       sodipodi:sides="3"
       sodipodi:cx="682.79999"
       sodipodi:cy="381.23883"
       sodipodi:r1="35.579056"
       sodipodi:r2="35.579056"
       sodipodi:arg1="0.44975961"
       sodipodi:arg2="1.4969572"
       inkscape:flatsided="false"
       inkscape:rounded="0"
       inkscape:randomized="0"
       d="m 714.84076,396.70679 -29.41603,20.01415 -32.04078,-15.46796 -2.62474,-35.48211 29.41604,-20.01415 32.04077,15.46797 z" />
    <path
       sodipodi:type="star"
       style="opacity:1;fill:#dedbe3;fill-opacity:1;stroke:none;stroke-width:1.57299995;stroke-miterlimit:4;stroke-dasharray:none"
       id="path1097"
       sodipodi:sides="3"
       sodipodi:cx="367.9165"
       sodipodi:cy="485.09515"
       sodipodi:r1="52.813889"
       sodipodi:r2="52.813889"
       sodipodi:arg1="0.91892721"
       sodipodi:arg2="1.9661248"
       inkscape:flatsided="false"
       inkscape:rounded="0"
       inkscape:randomized="0"
       d="m 399.95728,527.07962 -52.38,6.75589 -32.04078,-41.98446 20.33923,-48.74036 52.38,-6.7559 32.04078,41.98447 z" />
    <path
       sodipodi:type="star"
       style="opacity:1;fill:#ffe6d5;fill-opacity:1;stroke:none;stroke-width:1.57299995;stroke-miterlimit:4;stroke-dasharray:none"
       id="path1099"
       sodipodi:sides="3"
       sodipodi:cx="496.07965"
       sodipodi:cy="481.78055"
       sodipodi:r1="32.644657"
       sodipodi:r2="32.644657"
       sodipodi:arg1="1.1525737"
       sodipodi:arg2="2.1997713"
       inkscape:flatsided="false"
       inkscape:rounded="0"
       inkscape:randomized="0"
       d="m 509.33785,511.61164 -32.46358,-3.43361 -13.2582,-29.83109 19.20538,-26.39748 32.46358,3.43361 13.2582,29.83109 z" />
    <path
       sodipodi:type="star"
       style="opacity:1;fill:#f4d7d7;fill-opacity:1;stroke:none;stroke-width:1.57299995;stroke-miterlimit:4;stroke-dasharray:none"
       id="path1101"
       sodipodi:sides="3"
       sodipodi:cx="542.48346"
       sodipodi:cy="550.28156"
       sodipodi:r1="28.319639"
       sodipodi:r2="28.319639"
       sodipodi:arg1="0.35877067"
       sodipodi:arg2="1.4059682"
       inkscape:flatsided="false"
       inkscape:rounded="0"
       inkscape:randomized="0"
       d="m 568.99996,560.22524 -21.86974,17.99213 -26.5165,-9.94369 -4.64677,-27.93581 21.86974,-17.99213 26.51651,9.94369 z" />
    <path
       sodipodi:type="star"
       style="opacity:1;fill:#f2f2f2;fill-opacity:1;stroke:none;stroke-width:1.57299995;stroke-miterlimit:4;stroke-dasharray:none"
       id="path1103"
       sodipodi:sides="3"
       sodipodi:cx="733.62329"
       sodipodi:cy="458.57864"
       sodipodi:r1="36.577187"
       sodipodi:r2="36.577187"
       sodipodi:arg1="1.1341692"
       sodipodi:arg2="2.1813667"
       inkscape:flatsided="false"
       inkscape:rounded="0"
       inkscape:randomized="0"
       d="m 749.09125,491.72427 -36.43894,-3.17716 -15.46796,-33.14564 20.97098,-29.96846 36.43894,3.17717 15.46796,33.14563 z" />
    <path
       sodipodi:type="star"
       style="opacity:1;fill:#fff6d5;fill-opacity:1;stroke:none;stroke-width:1.57299995;stroke-miterlimit:4;stroke-dasharray:none"
       id="path1105"
       sodipodi:sides="3"
       sodipodi:cx="648.5495"
       sodipodi:cy="497.24854"
       sodipodi:r1="32.268559"
       sodipodi:r2="32.268559"
       sodipodi:arg1="0.66404616"
       sodipodi:arg2="1.7112437"
       inkscape:flatsided="false"
       inkscape:rounded="0"
       inkscape:randomized="0"
       d="m 673.96115,517.13591 -29.9288,12.06345 -25.41165,-19.88738 4.51715,-31.95082 29.9288,-12.06345 25.41165,19.88738 z" />
    <path
       sodipodi:type="star"
       style="opacity:1;fill:#eef4d7;fill-opacity:1;stroke:none;stroke-width:1.57299995;stroke-miterlimit:4;stroke-dasharray:none"
       id="path1107"
       sodipodi:sides="3"
       sodipodi:cx="202.18835"
       sodipodi:cy="500.56311"
       sodipodi:r1="42.504597"
       sodipodi:r2="42.504597"
       sodipodi:arg1="1.0838971"
       sodipodi:arg2="2.1310946"
       inkscape:flatsided="false"
       inkscape:rounded="0"
       inkscape:randomized="0"
       d="m 222.07573,538.12816 -42.47597,-1.55955 -19.88738,-37.56505 22.58859,-36.0055 42.47598,1.55955 19.88738,37.56505 z" />
  </g>
  <g
     id="g164"
     inkscape:groupmode="layer"
     inkscape:label="hhrh"
     style="display:inline;opacity:0.5">
    <path
       d="m 479.50677,388.97281 c 0.83094,4.65323 -5.86251,3.41583 -7.73397,1.38107 -5.07157,-5.51406 -0.67968,-13.87166 4.97183,-16.84903 10.10922,-5.32582 21.97013,1.49153 25.96408,11.32474 5.86129,14.43063 -3.65462,30.20465 -17.67764,35.07914 -18.69049,6.49693 -38.49089,-5.8099 -44.19419,-24.03056 -7.17702,-22.92883 7.96025,-46.80262 30.38346,-53.30924 27.1575,-7.88038 55.12889,10.1076 62.42429,36.73637 8.59739,31.38107 -12.25303,63.46423 -43.08927,71.53935 -35.60166,9.32303 -71.80564,-14.39718 -80.6544,-49.44218 -10.05452,-39.82036 16.54044,-80.1513 55.79508,-89.76946 44.03778,-10.79012 88.50005,18.68306 98.88451,62.14799 11.52872,48.25431 -20.82521,96.85113 -68.5009,107.99956"
       sodipodi:t0="0"
       sodipodi:argument="-17.455469"
       sodipodi:radius="94.275871"
       sodipodi:revolution="3"
       sodipodi:expansion="1"
       sodipodi:cy="388.97281"
       sodipodi:cx="479.50677"
       id="path126"
       style="fill:none;fill-rule:evenodd;stroke:#b3b3b3"
       sodipodi:type="spiral" />
    <path
       d="m 479.50677,388.97281 c 2.38202,-4.76403 7.59702,0.8605 7.91813,3.95906 0.87019,8.3969 -8.72508,12.99181 -15.83624,11.87719 -12.72019,-1.99381 -18.84768,-16.13932 -15.83626,-27.71342 4.41939,-16.98546 23.63782,-24.83195 39.59061,-19.79533 21.26255,6.71302 30.8682,31.16409 23.75439,51.46779 -8.95201,25.55013 -38.70308,36.93081 -63.34497,27.71345 -29.84464,-11.16345 -43.00857,-46.24911 -31.67252,-75.22214 13.35914,-34.14372 53.79953,-49.09583 87.09933,-35.63159 38.44593,15.545 55.18942,61.35288 39.59065,98.97651 -17.72431,42.75035 -68.90829,61.28746 -110.85369,43.54972 -47.0564,-19.89906 -67.38872,-76.46521 -47.50879,-122.73087 22.07049,-51.36366 84.02326,-73.4924 134.60806,-51.46786"
       sodipodi:t0="0"
       sodipodi:argument="-19.956705"
       sodipodi:radius="106.23276"
       sodipodi:revolution="3"
       sodipodi:expansion="1"
       sodipodi:cy="388.97281"
       sodipodi:cx="479.50677"
       id="path128"
       style="fill:none;fill-rule:evenodd;stroke:#b3b3b3"
       sodipodi:type="spiral" />
    <path
       d="m 195.55922,119.38836 c -4.32086,-1.71727 0.18308,-6.67167 2.85421,-7.18155 7.23859,-1.38175 11.94916,6.62197 11.50889,12.88997 -0.78753,11.21198 -12.63485,17.59415 -22.92573,15.83623 -15.10229,-2.57981 -23.35709,-18.71147 -20.16358,-32.9615 4.25646,-18.993043 24.80837,-29.167318 42.99727,-24.49091 22.88886,5.884782 35.00141,30.91437 28.81825,53.03303 -7.48864,26.78865 -37.02538,40.84921 -63.06879,33.14559 -30.69126,-9.07845 -46.7056,-43.13949 -37.47293,-73.104551 10.65947,-34.595849 49.25567,-52.567718 83.14031,-41.800276 38.50188,12.234652 58.43385,55.373327 46.12762,93.176077 -13.80573,42.40898 -61.49205,64.3029 -103.21184,50.45496 C 117.84601,183.01159 93.988769,130.77386 109.3806,85.137824"
       sodipodi:t0="0"
       sodipodi:argument="-21.612854"
       sodipodi:radius="92.735397"
       sodipodi:revolution="3"
       sodipodi:expansion="1"
       sodipodi:cy="119.38836"
       sodipodi:cx="195.55922"
       id="path130"
       style="fill:none;fill-rule:evenodd;stroke:#b3b3b3"
       sodipodi:type="spiral" />
    <path
       d="m 195.55922,119.38836 c 3.7669,-2.65899 5.44272,3.76586 4.41941,6.26084 -2.7731,6.76125 -11.973,6.33883 -16.9411,2.57798 -8.88677,-6.72726 -7.77095,-20.02533 -0.73655,-27.62135 10.32327,-11.14748 28.19449,-9.266532 38.30162,1.10488 13.47121,13.82346 10.7904,36.40612 -2.94632,48.98187 -17.28625,15.82531 -44.63822,12.32917 -59.66213,-4.78774 -18.19596,-20.73088 -13.87661,-52.881925 6.62918,-70.342393 24.16536,-20.576559 61.13284,-15.429497 81.02265,8.470609 22.96356,27.593624 16.98602,69.388594 -10.31204,91.702904 -31.0178,25.35494 -77.64774,18.54509 -102.38317,-12.15347 -27.74941,-34.43915 -20.106,-85.909343 13.99491,-113.063422 37.85847,-30.146174 94.1728,-21.668292 123.74368,15.836337"
       sodipodi:t0="0"
       sodipodi:argument="-19.464218"
       sodipodi:radius="91.96212"
       sodipodi:revolution="3"
       sodipodi:expansion="1"
       sodipodi:cy="119.38836"
       sodipodi:cx="195.55922"
       id="path132"
       style="fill:none;fill-rule:evenodd;stroke:#b3b3b3"
       sodipodi:type="spiral" />
    <path
       d="m 232.01941,234.29321 c -1.93885,-0.33237 -0.50853,-2.77751 0.55242,-3.22249 2.87512,-1.20588 5.52584,1.69439 5.89256,4.32734 0.65598,4.70973 -3.68879,8.38897 -8.10225,8.56263 -6.47694,0.25485 -11.30651,-5.69925 -11.2327,-11.87718 0.0984,-8.2342 7.71396,-14.24538 15.65209,-13.90276 9.98933,0.43116 17.19495,9.73034 16.57283,19.42701 -0.75346,11.74396 -11.7476,20.15061 -23.20192,19.2429 -13.49853,-1.06971 -23.11011,-13.76539 -21.91297,-26.97684 1.38215,-15.25315 15.78354,-26.07216 30.75176,-24.58304 17.00785,1.69204 29.036,17.80194 27.2531,34.52668 -2.00014,18.76263 -19.82053,32.00114 -38.30159,29.92317 -20.51749,-2.30694 -34.96725,-21.83926 -32.59324,-42.07651"
       sodipodi:t0="0"
       sodipodi:argument="-21.821371"
       sodipodi:radius="39.233997"
       sodipodi:revolution="3"
       sodipodi:expansion="1"
       sodipodi:cy="234.29321"
       sodipodi:cx="232.01941"
       id="path134"
       style="fill:none;fill-rule:evenodd;stroke:#b3b3b3"
       sodipodi:type="spiral" />
    <path
       d="m 333.66602,174.63107 c 1.32949,1.21871 -0.98687,2.3934 -2.02557,2.20971 -2.81482,-0.49779 -3.41826,-4.04927 -2.39385,-6.26084 1.83242,-3.95599 7.00793,-4.63512 10.49611,-2.57799 5.11905,3.01891 5.88595,10.00598 2.76214,14.73139 -4.16355,6.29822 -13.01791,7.15112 -18.96666,2.94628 -7.48591,-5.29137 -8.4237,-16.03643 -3.13043,-23.20194 6.41086,-8.6784 19.05865,-9.70054 27.43722,-3.31457 9.87384,7.52565 10.98007,22.08319 3.49871,31.67249 -8.63753,11.07123 -25.10927,12.2614 -35.90777,3.68285 -12.26994,-9.74749 -13.54397,-28.13642 -3.86699,-40.14304 10.85611,-13.46961 31.16437,-14.82746 44.37831,-4.05114 14.66998,11.96377 16.11163,34.19292 4.23528,48.61359"
       sodipodi:t0="0"
       sodipodi:argument="-18.107609"
       sodipodi:radius="35.971451"
       sodipodi:revolution="3"
       sodipodi:expansion="1"
       sodipodi:cy="174.63107"
       sodipodi:cx="333.66602"
       id="path136"
       style="fill:none;fill-rule:evenodd;stroke:#b3b3b3"
       sodipodi:type="spiral" />
    <path
       d="m 312.67377,248.65631 c 1.55108,0.88633 -0.42951,2.52811 -1.47314,2.57799 -2.82818,0.1352 -4.18842,-3.16359 -3.68285,-5.52427 0.90435,-4.22269 5.75545,-6.01151 9.5754,-4.7877 5.60594,1.79599 7.87604,8.37791 5.89256,13.62654 -2.64366,6.99558 -11.01064,9.75745 -17.67767,6.99741 -8.38977,-3.47323 -11.64746,-13.64812 -8.10227,-21.7288 4.29371,-9.78679 16.28824,-13.54242 25.77994,-9.20713 11.18563,5.109 15.44047,18.93001 10.31198,29.83107 -5.92105,12.58571 -21.57287,17.34059 -33.8822,11.41683 -13.98664,-6.73094 -19.24215,-24.2165 -12.52169,-37.93333 7.53934,-15.3882 26.8607,-21.14477 41.98446,-13.62654 16.79024,8.34666 23.04818,29.50533 14.7314,46.03559"
       sodipodi:t0="0"
       sodipodi:argument="-18.33041"
       sodipodi:radius="35.630482"
       sodipodi:revolution="3"
       sodipodi:expansion="1"
       sodipodi:cy="248.65631"
       sodipodi:cx="312.67377"
       id="path138"
       style="fill:none;fill-rule:evenodd;stroke:#b3b3b3"
       sodipodi:type="spiral" />
    <path
       d="m 268.47961,313.84271 c 0.49856,1.82806 -2.21821,1.57395 -3.03835,0.82864 -2.22252,-2.01973 -0.76861,-5.51401 1.38107,-6.90534 3.84528,-2.48875 8.82523,-0.19204 10.77233,3.59078 2.85746,5.55144 -0.37641,12.19046 -5.80048,14.63932 -7.22945,3.26394 -15.57608,-0.93989 -18.50631,-8.0102 -3.6874,-8.89725 1.50049,-18.97168 10.2199,-22.37329 10.56038,-4.11981 22.37299,2.05937 26.24029,12.42961 4.55748,12.22097 -2.61716,25.77785 -14.63932,30.10728 -13.88007,4.99849 -29.18509,-3.17422 -33.97427,-16.84903 -5.44177,-15.5382 3.73077,-32.594 19.05874,-37.84126 17.19567,-5.88664 36.00411,4.28696 41.70825,21.26845 6.33268,18.85267 -4.84288,39.41513 -23.47816,45.57524"
       sodipodi:t0="0"
       sodipodi:argument="-17.545012"
       sodipodi:radius="37.791832"
       sodipodi:revolution="3"
       sodipodi:expansion="1"
       sodipodi:cy="313.84271"
       sodipodi:cx="268.47961"
       id="path140"
       style="fill:none;fill-rule:evenodd;stroke:#b3b3b3"
       sodipodi:type="spiral" />
    <path
       d="m 386.69904,246.44661 c -0.99713,1.55108 -2.58277,-0.57885 -2.578,-1.65728 0.0129,-2.92248 3.48647,-4.14695 5.89256,-3.49871 4.30392,1.15955 5.88657,6.25624 4.41942,10.12783 -2.15311,5.68172 -9.05979,7.66726 -14.36311,5.34013 -7.06849,-3.10169 -9.46481,-11.87483 -6.26084,-18.59838 4.03186,-8.4609 14.69523,-11.27095 22.83365,-7.18155 9.85673,4.9528 13.08205,17.51862 8.10227,27.06893 -5.8685,11.2547 -20.34387,14.89625 -31.3042,9.02298 -12.65414,-6.78092 -16.71253,-23.17037 -9.9437,-35.53948 7.69118,-14.05457 25.99775,-18.53025 39.77476,-10.86441 15.45572,8.59992 20.34903,28.82576 11.78512,44.01003 -9.50757,16.85743 -31.65425,22.16861 -48.24531,12.70583"
       sodipodi:t0="0"
       sodipodi:argument="-16.707422"
       sodipodi:radius="36.776882"
       sodipodi:revolution="3"
       sodipodi:expansion="1"
       sodipodi:cy="246.44661"
       sodipodi:cx="386.69904"
       id="path142"
       style="fill:none;fill-rule:evenodd;stroke:#b3b3b3"
       sodipodi:type="spiral" />
    <path
       d="m 503.81357,165.79224 c -1.3295,2.88057 -4.53888,-0.37096 -4.7877,-2.20971 -0.67429,-4.9829 4.95276,-7.89699 9.20712,-7.3657 7.61004,0.95036 11.5212,9.25788 9.94368,16.20454 -2.31507,10.19449 -13.61077,15.22343 -23.20194,12.52167 -12.78353,-3.60101 -18.95714,-17.97922 -15.09967,-30.19935 4.85422,-15.37779 22.35476,-22.70676 37.19677,-17.67766 17.97566,6.0909 26.46553,26.73421 20.25565,44.19417 -7.31813,20.57597 -31.1161,30.23005 -51.19159,22.83365 -23.17795,-8.53944 -33.99839,-35.49961 -25.41164,-58.189 9.75681,-25.78113 39.88427,-37.76941 65.18641,-27.98963 28.38519,10.97143 41.54239,44.26976 30.56763,72.18382 -12.18406,30.98991 -48.65589,45.31681 -79.18124,33.14562"
       sodipodi:t0="0"
       sodipodi:argument="-16.846352"
       sodipodi:radius="63.276428"
       sodipodi:revolution="3"
       sodipodi:expansion="1"
       sodipodi:cy="165.79224"
       sodipodi:cx="503.81357"
       id="path144"
       style="fill:none;fill-rule:evenodd;stroke:#b3b3b3"
       sodipodi:type="spiral" />
    <path
       d="m 503.81357,165.79224 c -2.88057,3.54532 -6.2002,-2.13382 -5.89256,-4.7877 0.83368,-7.19186 9.72181,-9.2536 15.46796,-6.99742 10.27852,4.03578 12.77678,17.01854 8.10227,26.14822 -6.86004,13.39817 -24.4097,16.39179 -36.82848,9.20712 -16.55227,-9.57603 -20.04516,-31.83379 -10.31198,-47.50873 12.24823,-19.72531 39.27343,-23.71823 58.189,-11.41684 22.90928,14.89865 27.40267,46.7218 12.52169,68.86925 -17.53673,26.10002 -54.17559,31.09426 -79.54951,13.62655 -29.29519,-20.16716 -34.7906,-61.63302 -14.7314,-90.22976 22.79252,-32.493447 69.09299,-38.49027 100.91002,-15.83626 35.6939,25.41437 42.19236,76.55483 16.94111,111.59028 -28.03366,38.89599 -84.01807,45.89626 -122.27054,18.04597"
       sodipodi:t0="0"
       sodipodi:argument="-16.596443"
       sodipodi:radius="91.10862"
       sodipodi:revolution="3"
       sodipodi:expansion="1"
       sodipodi:cy="165.79224"
       sodipodi:cx="503.81357"
       id="path146"
       style="fill:none;fill-rule:evenodd;stroke:#b3b3b3"
       sodipodi:type="spiral" />
    <path
       d="m 215.44659,480.67572 c -3.60071,2.10503 -4.61401,-3.81514 -3.4987,-5.98463 3.02241,-5.87916 11.28132,-4.78668 15.46796,-1.01278 7.48891,6.75062 5.45444,18.64945 -1.47314,24.95129 -10.16649,9.24822 -26.12778,6.17034 -34.43463,-3.95906 -11.07172,-13.50089 -6.90845,-33.64656 6.44498,-43.91796 16.80394,-12.9255 41.18498,-7.65841 53.4013,8.93091 14.79561,20.09188 8.41529,48.73448 -11.41682,62.88462 -23.37146,16.67546 -56.29095,9.17652 -72.36797,-13.90274 -18.56155,-26.64592 -9.94064,-63.85203 16.38867,-81.8513 29.91704,-20.45191 71.41637,-10.70681 91.33463,18.87459 22.34529,33.18586 11.47444,78.98307 -21.36051,100.81797 -36.45302,24.24087 -86.55155,12.24316 -110.3013,-23.84644"
       sodipodi:t0="0"
       sodipodi:argument="-16.236994"
       sodipodi:radius="83.187538"
       sodipodi:revolution="3"
       sodipodi:expansion="1"
       sodipodi:cy="480.67572"
       sodipodi:cx="215.44659"
       id="path148"
       style="fill:none;fill-rule:evenodd;stroke:#b3b3b3"
       sodipodi:type="spiral" />
    <path
       d="m 215.44659,480.67572 c 1.88345,-3.7669 6.00694,0.6804 6.26085,3.13042 0.68806,6.63941 -6.89891,10.2726 -12.52168,9.39126 -10.05783,-1.57649 -14.90282,-12.76132 -12.52169,-21.91293 3.49439,-13.43036 18.69036,-19.63456 31.30419,-15.65212 16.81226,5.30797 24.40742,24.64137 18.78255,40.69546 -7.07833,20.20243 -30.60243,29.2011 -50.08672,21.91296 -23.59809,-8.82691 -34.00678,-36.56906 -25.04339,-59.47797 10.56304,-26.99736 42.53916,-38.81996 68.86923,-28.17382 30.39911,12.2914 43.63816,48.51158 31.30424,78.2605 -14.01457,33.8026 -54.48562,48.45985 -87.65175,34.43466 -37.20739,-15.73414 -53.28411,-60.46086 -37.56509,-97.04301 17.45109,-40.61313 66.437,-58.11027 106.43427,-40.69552"
       sodipodi:t0="0"
       sodipodi:argument="-19.956705"
       sodipodi:radius="83.997993"
       sodipodi:revolution="3"
       sodipodi:expansion="1"
       sodipodi:cy="480.67572"
       sodipodi:cx="215.44659"
       id="path150"
       style="fill:none;fill-rule:evenodd;stroke:#b3b3b3"
       sodipodi:type="spiral" />
    <path
       d="m 655.17865,278.4874 c -0.0554,4.76402 -6.44914,2.27572 -7.91812,-0.0921 -3.98085,-6.41659 1.94479,-13.86275 8.10227,-15.74417 11.01429,-3.36542 21.4714,5.6228 23.57022,16.11247 3.0801,15.39401 -9.31844,29.21628 -24.12267,31.39627 -19.7317,2.90557 -37.01386,-13.01612 -39.22231,-32.13287 -2.77912,-24.05647 16.71373,-44.8376 40.14306,-47.04836 28.37605,-2.67752 52.6763,20.4111 54.87441,48.15326 2.5904,32.69317 -24.10829,60.52435 -56.16346,62.70046 -37.00896,2.5124 -68.37864,-27.80535 -70.5265,-64.17365 -2.44054,-41.32398 31.50233,-76.23732 72.18384,-78.35256 45.63851,-2.37298 84.09917,35.19928 86.17861,80.19404 2.30857,49.95273 -38.89619,91.96341 -88.20424,94.00466"
       sodipodi:t0="0"
       sodipodi:argument="-17.267132"
       sodipodi:radius="95.023895"
       sodipodi:revolution="3"
       sodipodi:expansion="1"
       sodipodi:cy="278.4874"
       sodipodi:cx="655.17865"
       id="path152"
       style="fill:none;fill-rule:evenodd;stroke:#b3b3b3"
       sodipodi:type="spiral" />
    <path
       d="m 655.17865,278.4874 c 2.32662,-1.88345 3.68672,2.207 3.13042,3.86699 -1.50755,4.49845 -7.48535,4.61788 -10.8644,2.39385 -6.04433,-3.97828 -5.88966,-12.64051 -1.65728,-17.86181 6.21119,-7.66247 17.86864,-7.20754 24.85922,-0.92071 9.31734,8.37935 8.54556,23.12307 0.18414,31.85663 -10.522,10.99029 -28.39014,9.8941 -38.85404,-0.55244 -12.67319,-12.65215 -11.24876,-33.66433 1.289,-45.85144 14.77532,-14.3621 38.94298,-12.60726 52.84886,2.02557 16.05488,16.89418 13.96831,44.2246 -2.76215,59.84627 -19.0102,17.75032 -49.5083,15.33116 -66.84367,-3.49872 -19.44766,-21.12427 -16.69531,-54.79353 4.23529,-73.84108 23.23692,-21.14639 60.0799,-18.06043 80.83849,4.97185"
       sodipodi:t0="0"
       sodipodi:argument="-19.530077"
       sodipodi:radius="59.70303"
       sodipodi:revolution="3"
       sodipodi:expansion="1"
       sodipodi:cy="278.4874"
       sodipodi:cx="655.17865"
       id="path154"
       style="fill:none;fill-rule:evenodd;stroke:#b3b3b3"
       sodipodi:type="spiral" />
    <path
       d="m 640.81549,454.15924 c 0.38777,4.09928 -5.33443,2.54515 -6.81327,0.6445 -4.00755,-5.15063 0.40446,-12.09141 5.52427,-14.27104 9.15815,-3.89883 18.96644,2.87 21.72881,11.69304 4.05389,12.94817 -5.33825,25.96015 -17.86181,29.18658 -16.69194,4.30031 -32.99934,-7.80344 -36.64434,-24.03059 -4.58687,-20.42021 10.26616,-40.06099 30.19935,-44.1021 24.14176,-4.89433 47.13549,12.72732 51.55987,36.36812 5.21398,27.85986 -15.18747,54.218 -42.53689,59.01764 -31.57599,5.54137 -61.30587,-17.64694 -66.47541,-48.70566 -5.87395,-35.29089 20.10595,-68.3975 54.87443,-73.93318 39.00499,-6.21019 75.49186,22.56463 81.39095,61.04321 6.54911,42.71851 -25.02306,82.58825 -67.21198,88.84871"
       sodipodi:t0="0"
       sodipodi:argument="-17.373074"
       sodipodi:radius="82.124207"
       sodipodi:revolution="3"
       sodipodi:expansion="1"
       sodipodi:cy="454.15924"
       sodipodi:cx="640.81549"
       id="path156"
       style="fill:none;fill-rule:evenodd;stroke:#b3b3b3"
       sodipodi:type="spiral" />
    <path
       d="m 640.81549,454.15924 c 1.38489,-2.21583 3.67015,0.77359 3.68285,2.30178 0.0344,4.14129 -4.86536,5.93903 -8.28641,5.06392 -6.11945,-1.56535 -8.45402,-8.75863 -6.44499,-14.27104 2.94832,-8.08967 12.69903,-11.0278 20.25567,-7.82606 10.07181,4.26741 13.62568,16.65541 9.20714,26.2403 -5.56029,12.0616 -20.61923,16.23584 -32.22493,10.58821 -14.05607,-6.84005 -18.85308,-24.58719 -11.96929,-38.20956 8.11232,-16.0535 28.55774,-21.47475 44.19419,-13.35036 18.05291,9.37993 24.09937,32.53001 14.73143,50.17882 -10.64446,20.05371 -36.50349,26.72607 -56.16345,16.1125 -22.05551,-11.90682 -29.35427,-40.47785 -17.49357,-62.14808 13.16763,-24.05806 44.45289,-31.9836 68.13271,-18.87464"
       sodipodi:t0="0"
       sodipodi:argument="-19.861753"
       sodipodi:radius="52.115902"
       sodipodi:revolution="3"
       sodipodi:expansion="1"
       sodipodi:cy="454.15924"
       sodipodi:cx="640.81549"
       id="path158"
       style="fill:none;fill-rule:evenodd;stroke:#b3b3b3"
       sodipodi:type="spiral" />
    <path
       d="m 92.807762,293.95535 c -1.55108,3.04676 -4.872218,-0.58766 -5.063914,-2.57799 -0.519483,-5.39369 5.660722,-8.29835 10.219907,-7.54984 8.155315,1.33892 12.022505,10.44687 10.035745,17.86182 -2.91564,10.88174 -15.287691,15.82868 -25.503723,12.52167 -13.616365,-4.40773 -19.668109,-20.14659 -15.007585,-33.14564 5.864793,-16.35798 25.013767,-23.52439 40.787548,-17.4935 19.10416,7.30421 27.39036,29.88554 19.97942,48.42946 -8.73353,21.85336 -34.76018,31.2624 -56.071369,22.46534 -24.604611,-10.15657 -35.13851,-39.63673 -24.951256,-63.71328 11.575406,-27.35732 44.514609,-39.01746 71.355195,-27.43718 30.11107,12.99132 42.89845,49.39348 29.92309,78.9971 -14.40512,32.86564 -54.273088,46.78101 -86.639015,32.40901"
       sodipodi:t0="0"
       sodipodi:argument="-16.807865"
       sodipodi:radius="68.1884"
       sodipodi:revolution="3"
       sodipodi:expansion="1"
       sodipodi:cy="293.95535"
       sodipodi:cx="92.807762"
       id="path160"
       style="fill:none;fill-rule:evenodd;stroke:#b3b3b3"
       sodipodi:type="spiral" />
    <path
       d="m 92.807762,293.95535 c 0.166187,-2.16043 2.994208,-0.84186 3.590777,0.27622 1.616667,3.02992 -1.293035,6.23379 -4.143205,6.90534 -5.098285,1.20124 -9.577952,-3.1875 -10.219903,-8.0102 -0.94209,-7.0775 5.094004,-12.98342 11.877187,-13.53447 9.040912,-0.73445 16.412742,7.00299 16.849032,15.74418 0.54902,10.9999 -8.91272,19.85394 -19.611172,20.1636 -12.957256,0.37503 -23.301929,-10.82279 -23.478156,-23.47817 -0.207677,-14.91392 12.733041,-26.75417 27.345152,-26.79271 16.870266,-0.0445 30.209246,14.64342 30.107286,31.21214 -0.11586,18.82643 -16.55391,33.66631 -35.079138,33.42184 C 69.263118,329.58887 52.920794,311.39866 53.309213,290.917 53.740432,268.17847 73.684287,250.33257 96.12233,250.86603"
       sodipodi:t0="0"
       sodipodi:argument="-20.34358"
       sodipodi:radius="43.216621"
       sodipodi:revolution="3"
       sodipodi:expansion="1"
       sodipodi:cy="293.95535"
       sodipodi:cx="92.807762"
       id="path162"
       style="fill:none;fill-rule:evenodd;stroke:#b3b3b3"
       sodipodi:type="spiral" />
  </g>
</svg>
